<?xml version="1.0" encoding="utf-8"?>
<!-- Generator: Adobe Illustrator 16.0.0, SVG Export Plug-In . SVG Version: 6.00 Build 0)  -->
<!DOCTYPE svg PUBLIC "-//W3C//DTD SVG 1.1//EN" "http://www.w3.org/Graphics/SVG/1.1/DTD/svg11.dtd">
<svg version="1.1" id="Layer_1" xmlns="http://www.w3.org/2000/svg" xmlns:xlink="http://www.w3.org/1999/xlink" x="0px" y="0px"
	 width="512px" height="512px" viewBox="0 0 512 512" enable-background="new 0 0 512 512" xml:space="preserve">
<path fill="#FFFFFF" d="M201.315,93.583c0,0,58.327,41.202,0,125.85c-52.711,76.496-84.174,157.706-25.985,218.352
	c16.858,17.576,36.85,26.519,57.275,28.63c-33.026-9.637-57.629-42.578-28.953-101.501c17.634-36.24,61.557-78.914,46.937-129.183
	c0,0,39.537,49.808,12.608,125.716c-12.229,34.481,41.672,38.244,27.067,0.606c-8.827-22.744,41.684,45.2,14.481,84.454
	c25.67-17.737,39.562-46.932,49.755-78.107C383.408,280.003,345.368,137.419,201.315,93.583z"/>
</svg>
