<?xml version="1.0" encoding="utf-8"?>
<!-- Generator: Adobe Illustrator 16.0.3, SVG Export Plug-In . SVG Version: 6.00 Build 0)  -->
<!DOCTYPE svg PUBLIC "-//W3C//DTD SVG 1.1//EN" "http://www.w3.org/Graphics/SVG/1.1/DTD/svg11.dtd">
<svg version="1.1" id="Layer_1" xmlns="http://www.w3.org/2000/svg" xmlns:xlink="http://www.w3.org/1999/xlink" x="0px" y="0px"
	 width="48px" height="48px" viewBox="0 0 48 48" enable-background="new 0 0 48 48" xml:space="preserve">
<path fill="#FFFFFF" d="M0,24c0,13.254,10.746,24,24,24s24-10.746,24-24S37.254,0,24,0S0,10.746,0,24z M42,24
	c0,9.939-8.061,18-18,18c-9.939,0-18-8.061-18-18c0-9.939,8.061-18,18-18C33.939,6,42,14.061,42,24z M12.876,21.879l6-6
	c0.858-0.855,2.148-1.113,3.273-0.651C23.268,15.69,24,16.788,24,18v3h9c1.659,0,3,1.341,3,3s-1.341,3-3,3h-9v3
	c0,1.212-0.732,2.311-1.851,2.771c-1.122,0.463-2.415,0.207-3.273-0.65l-6-6c-0.585-0.585-0.879-1.354-0.879-2.121
	C11.997,23.232,12.291,22.464,12.876,21.879z"/>
</svg>
