<?xml version="1.0" encoding="utf-8"?>
<!-- Generator: Adobe Illustrator 16.0.3, SVG Export Plug-In . SVG Version: 6.00 Build 0)  -->
<!DOCTYPE svg PUBLIC "-//W3C//DTD SVG 1.1//EN" "http://www.w3.org/Graphics/SVG/1.1/DTD/svg11.dtd">
<svg version="1.1" id="Layer_1" xmlns="http://www.w3.org/2000/svg" xmlns:xlink="http://www.w3.org/1999/xlink" x="0px" y="0px"
	 width="48px" height="48px" viewBox="0 0 48 48" enable-background="new 0 0 48 48" xml:space="preserve">
<path fill="#FFFFFF" d="M24,0C10.746,0,0,10.746,0,24s10.746,24,24,24s24-10.746,24-24S37.254,0,24,0z M24,6c9.939,0,18,8.061,18,18
	c0,9.939-8.061,18-18,18c-9.939,0-18-8.061-18-18C6,14.061,14.061,6,24,6z M35.124,21.879c0.585,0.585,0.879,1.353,0.879,2.121
	c0,0.768-0.294,1.536-0.879,2.121l-6,6c-0.858,0.857-2.151,1.113-3.272,0.65C24.732,32.311,24,31.212,24,30v-3h-9
	c-1.659,0-3-1.341-3-3s1.341-3,3-3h9v-3c0-1.212,0.732-2.31,1.852-2.772c1.125-0.462,2.414-0.204,3.272,0.651L35.124,21.879z"/>
</svg>
