<?xml version="1.0" encoding="utf-8"?>
<!-- Generator: Adobe Illustrator 16.0.3, SVG Export Plug-In . SVG Version: 6.00 Build 0)  -->
<!DOCTYPE svg PUBLIC "-//W3C//DTD SVG 1.1//EN" "http://www.w3.org/Graphics/SVG/1.1/DTD/svg11.dtd">
<svg version="1.1" id="Layer_1" xmlns="http://www.w3.org/2000/svg" xmlns:xlink="http://www.w3.org/1999/xlink" x="0px" y="0px"
	 width="100px" height="100px" viewBox="0 0 100 100" enable-background="new 0 0 100 100" xml:space="preserve">
<path fill="#FFFFFF" d="M41.678,69.536c-2.983,5.169-0.972,9.421,3.164,11.811s8.826,2.003,11.811-3.164
	c2.983-5.169,21.817-51.294,20.178-52.242C75.191,24.996,44.661,64.369,41.678,69.536z M49.772,36.684
	c1.89,0,3.737,0.163,5.537,0.468c1.895-2.369,4.014-4.983,6.077-7.466c-3.685-1.067-7.573-1.647-11.614-1.647
	c-24.239,0-43.228,20.439-43.228,46.532c0,1.604,0.071,3.212,0.211,4.773c0.213,2.379,2.336,4.129,4.689,3.923
	c2.378-0.213,4.134-2.313,3.922-4.691c-0.117-1.31-0.177-2.655-0.177-4.007C15.19,53.326,30.381,36.684,49.772,36.684z
	 M80.976,42.083c-1.205,3.241-2.481,6.544-3.603,9.402c4.395,6.351,6.981,14.324,6.981,23.085c0,1.369-0.061,2.744-0.184,4.086
	c-0.216,2.378,1.535,4.48,3.912,4.696c0.134,0.014,0.266,0.019,0.397,0.019c2.21,0,4.095-1.687,4.301-3.931
	C92.926,77.84,93,76.203,93,74.57C93,61.81,88.451,50.41,80.976,42.083z"/>
</svg>
