<?xml version="1.0" encoding="utf-8"?>
<!-- Generator: Adobe Illustrator 16.0.3, SVG Export Plug-In . SVG Version: 6.00 Build 0)  -->
<!DOCTYPE svg PUBLIC "-//W3C//DTD SVG 1.1//EN" "http://www.w3.org/Graphics/SVG/1.1/DTD/svg11.dtd">
<svg version="1.1" id="Layer_1" xmlns="http://www.w3.org/2000/svg" xmlns:xlink="http://www.w3.org/1999/xlink" x="0px" y="0px"
	 width="100px" height="100px" viewBox="0 0 100 100" enable-background="new 0 0 100 100" xml:space="preserve">
<g>
	<g>
		<path fill="#FFFFFF" d="M27.06,33.49l-5.735-5.734c-1.583-1.583-4.151-1.583-5.734,0c-1.584,1.583-1.584,4.151,0,5.734
			l5.734,5.735c1.584,1.583,4.152,1.583,5.735,0C28.645,37.642,28.645,35.076,27.06,33.49z M94.608,58.111h-8.11
			c-2.237,0-4.054,1.818-4.054,4.056c0,2.238,1.816,4.056,4.054,4.056h8.11c2.239,0,4.056-1.817,4.056-4.056
			C98.664,59.93,96.852,58.111,94.608,58.111z M13.503,58.111H5.392c-2.239,0-4.056,1.818-4.056,4.056
			c0,2.238,1.817,4.056,4.056,4.056h8.112c2.239,0,4.056-1.817,4.056-4.056C17.559,59.93,15.74,58.111,13.503,58.111z
			 M70.277,78.389H29.723c-2.239,0-4.054,1.815-4.054,4.056c0,2.239,1.817,4.054,4.054,4.054h40.555
			c2.239,0,4.056-1.814,4.056-4.054C74.333,80.204,72.517,78.389,70.277,78.389z M84.411,27.756c-1.58-1.583-4.152-1.583-5.735,0
			L72.94,33.49c-1.58,1.584-1.58,4.152,0,5.735c1.585,1.583,4.155,1.583,5.735,0l5.735-5.735
			C85.993,31.907,85.993,29.339,84.411,27.756z M50.002,29.724c2.24,0,4.054-1.817,4.054-4.056v-8.11
			c0-2.239-1.817-4.056-4.054-4.056c-2.241,0-4.056,1.817-4.056,4.056v8.11C45.946,27.907,47.761,29.724,50.002,29.724z
			 M50.002,37.836c-13.439,0-24.333,10.892-24.333,24.331c0,2.848,0.515,5.571,1.414,8.109h8.884
			c-1.385-2.386-2.188-5.15-2.188-8.109c0-8.959,7.264-16.221,16.223-16.221c8.957,0,16.22,7.262,16.22,16.221
			c0,2.959-0.803,5.724-2.187,8.109h8.886c0.897-2.538,1.412-5.262,1.412-8.109C74.333,48.728,63.438,37.836,50.002,37.836z
			 M50.002,70.783c1.119,0,2.026-0.906,2.026-2.027v-7.762l5.143,5.142c0.79,0.792,2.073,0.792,2.868,0
			c0.79-0.792,0.79-2.075,0-2.867l-8.604-8.604c-0.793-0.792-2.076-0.792-2.867,0l-8.603,8.604c-0.792,0.792-0.792,2.075,0,2.867
			c0.793,0.792,2.076,0.792,2.868,0l5.141-5.142v7.762C47.974,69.877,48.881,70.783,50.002,70.783z"/>
	</g>
</g>
</svg>
