<?xml version="1.0" encoding="utf-8"?>
<!-- Generator: Adobe Illustrator 16.0.3, SVG Export Plug-In . SVG Version: 6.00 Build 0)  -->
<!DOCTYPE svg PUBLIC "-//W3C//DTD SVG 1.1//EN" "http://www.w3.org/Graphics/SVG/1.1/DTD/svg11.dtd">
<svg version="1.1" id="Layer_1" xmlns="http://www.w3.org/2000/svg" xmlns:xlink="http://www.w3.org/1999/xlink" x="0px" y="0px"
	 width="100px" height="100px" viewBox="0 0 100 100" enable-background="new 0 0 100 100" xml:space="preserve">
<path fill="#FFFFFF" d="M95.679,66.611h-8.306c-2.291,0-4.151-1.861-4.151-4.152c0-2.292,1.86-4.153,4.151-4.153h8.306
	c2.292,0,4.151,1.861,4.151,4.153C99.83,64.75,97.975,66.611,95.679,66.611z M79.367,38.969c-1.622,1.622-4.255,1.622-5.873,0
	c-1.622-1.621-1.622-4.25,0-5.873l5.873-5.872c1.618-1.62,4.25-1.62,5.868,0c1.623,1.622,1.623,4.25,0,5.872L79.367,38.969z
	 M73.471,70.763h-9.1c1.418-2.443,2.239-5.274,2.239-8.304c0-9.175-7.437-16.61-16.608-16.61c-9.174,0-16.612,7.436-16.612,16.61
	c0,3.029,0.824,5.86,2.243,8.304h-9.099c-0.92-2.6-1.448-5.388-1.448-8.304c0-13.761,11.155-24.915,24.916-24.915
	c13.759,0,24.914,11.153,24.914,24.915C74.916,65.375,74.389,68.163,73.471,70.763z M50.002,29.238c-2.294,0-4.153-1.86-4.153-4.153
	v-8.304c0-2.292,1.858-4.153,4.153-4.153c2.294,0,4.153,1.86,4.153,4.153v8.304C54.155,27.378,52.291,29.238,50.002,29.238z
	 M20.638,38.969l-5.872-5.873c-1.622-1.621-1.622-4.25,0-5.872c1.622-1.62,4.25-1.62,5.872,0l5.873,5.872
	c1.622,1.623,1.622,4.251,0,5.873C24.889,40.59,22.262,40.59,20.638,38.969z M16.782,62.459c0,2.291-1.861,4.152-4.153,4.152H4.323
	c-2.292,0-4.153-1.861-4.153-4.152c0-2.292,1.86-4.153,4.153-4.153h8.306C14.921,58.306,16.782,60.167,16.782,62.459z
	 M50.002,54.152c1.146,0,2.076,0.931,2.076,2.076v7.949l5.265-5.264c0.812-0.812,2.123-0.812,2.937,0
	c0.811,0.811,0.811,2.125,0,2.937l-8.81,8.809c-0.812,0.812-2.124,0.812-2.936,0l-8.809-8.809c-0.812-0.812-0.812-2.126,0-2.937
	c0.812-0.812,2.125-0.812,2.936,0l5.264,5.264v-7.949C47.925,55.083,48.854,54.152,50.002,54.152z M29.239,79.068h41.524
	c2.294,0,4.153,1.859,4.153,4.153c0,2.293-1.859,4.15-4.153,4.15H29.239c-2.292,0-4.153-1.857-4.153-4.15
	C25.086,80.928,26.944,79.068,29.239,79.068z"/>
</svg>
