<?xml version="1.0" encoding="utf-8"?>
<!-- Generator: Adobe Illustrator 16.0.3, SVG Export Plug-In . SVG Version: 6.00 Build 0)  -->
<!DOCTYPE svg PUBLIC "-//W3C//DTD SVG 1.1//EN" "http://www.w3.org/Graphics/SVG/1.1/DTD/svg11.dtd">
<svg version="1.1" id="Layer_1" xmlns="http://www.w3.org/2000/svg" xmlns:xlink="http://www.w3.org/1999/xlink" x="0px" y="0px"
	 width="100px" height="100px" viewBox="0 0 100 100" enable-background="new 0 0 100 100" xml:space="preserve">
<path fill="#FFFFFF" d="M49.999,83.616c-8.285,0-14.998-6.713-14.998-14.997c0-3.799,1.421-7.256,3.751-9.901V27.369
	c0-6.213,5.037-11.249,11.247-11.249c6.215,0,11.252,5.036,11.252,11.249v31.349c2.325,2.646,3.75,6.103,3.75,9.901
	C65.001,76.903,58.283,83.616,49.999,83.616z M53.75,62.158v-8.051V34.868v-7.499c0-2.07-1.678-3.75-3.751-3.75
	c-2.07,0-3.75,1.68-3.75,3.75v7.499v19.239v8.051c-2.23,1.3-3.747,3.691-3.747,6.461c0,4.141,3.354,7.496,7.497,7.496
	c4.143,0,7.501-3.355,7.501-7.496C57.5,65.85,55.984,63.458,53.75,62.158z M49.999,74.244c-3.105,0-5.622-2.52-5.622-5.625
	c0-2.447,1.567-4.506,3.747-5.282v-9.72h3.75v9.72c2.18,0.776,3.75,2.835,3.75,5.282C55.624,71.725,53.104,74.244,49.999,74.244z"/>
</svg>
