<?xml version="1.0" encoding="utf-8"?>
<!-- Generator: Adobe Illustrator 16.0.3, SVG Export Plug-In . SVG Version: 6.00 Build 0)  -->
<!DOCTYPE svg PUBLIC "-//W3C//DTD SVG 1.1//EN" "http://www.w3.org/Graphics/SVG/1.1/DTD/svg11.dtd">
<svg version="1.1" id="Layer_1" xmlns="http://www.w3.org/2000/svg" xmlns:xlink="http://www.w3.org/1999/xlink" x="0px" y="0px"
	 width="100px" height="100px" viewBox="0 0 100 100" enable-background="new 0 0 100 100" xml:space="preserve">
<path fill="#FFFFFF" d="M50.001,83.619c-8.285,0-15.002-6.717-15.002-15.002c0-3.798,1.425-7.255,3.75-9.899V27.37
	c0-6.213,5.039-11.251,11.251-11.251c6.212,0,11.249,5.039,11.249,11.251v31.348c2.327,2.645,3.749,6.102,3.749,9.899
	C64.999,76.902,58.285,83.619,50.001,83.619z M53.752,62.157V54.11V34.868v-7.5c0-2.07-1.682-3.75-3.751-3.75
	c-2.07,0-3.75,1.68-3.75,3.75v7.5V54.11v8.047c-2.231,1.3-3.75,3.691-3.75,6.46c0,4.143,3.359,7.502,7.501,7.502
	c4.142,0,7.499-3.359,7.499-7.502C57.5,65.849,55.981,63.457,53.752,62.157z M50.001,74.243c-3.105,0-5.626-2.52-5.626-5.626
	c0-2.446,1.571-4.504,3.75-5.281V34.751h3.751v28.585c2.178,0.777,3.749,2.835,3.749,5.281
	C55.626,71.724,53.106,74.243,50.001,74.243z"/>
</svg>
