<?xml version="1.0" encoding="utf-8"?>
<!-- Generator: Adobe Illustrator 16.0.3, SVG Export Plug-In . SVG Version: 6.00 Build 0)  -->
<!DOCTYPE svg PUBLIC "-//W3C//DTD SVG 1.1//EN" "http://www.w3.org/Graphics/SVG/1.1/DTD/svg11.dtd">
<svg version="1.1" id="Layer_1" xmlns="http://www.w3.org/2000/svg" xmlns:xlink="http://www.w3.org/1999/xlink" x="0px" y="0px"
	 width="100px" height="100px" viewBox="0 0 100 100" enable-background="new 0 0 100 100" xml:space="preserve">
<path fill="#FFFFFF" d="M81.555,58.172L81.555,58.172h-5.989c-2.203,0-3.99-1.784-3.99-3.989c0-2.204,1.787-3.993,3.99-3.993h5.989
	c2.206,0,3.992-1.788,3.992-3.988c0-2.206-1.786-3.992-3.992-3.992c-2.204,0-3.99-1.79-3.99-3.993s1.786-3.993,3.99-3.993
	c0.275,0,0.54,0.029,0.802,0.083c6.229,0.421,11.17,5.555,11.17,11.894C93.527,52.812,88.17,58.172,81.555,58.172z M61.594,50.189
	h-3.99H43.636H17.69c-2.203,0-3.989,1.789-3.989,3.993c0,2.205,1.786,3.989,3.989,3.989h3.992h7.982h5.988h7.984h5.987h7.98h3.99
	c6.615,0,11.978,5.365,11.978,11.976c0,6.338-4.942,11.472-11.169,11.895c-0.262,0.054-0.528,0.081-0.809,0.081
	c-2.203,0-3.99-1.788-3.99-3.992c0-2.207,1.787-3.991,3.99-3.991c2.208,0,3.993-1.789,3.993-3.992c0-2.201-1.785-3.99-3.993-3.99
	h-3.99h-7.98h-5.987h-7.984h-5.988h-7.982H17.69c-6.612,0-11.973-5.359-11.973-11.974c0-6.337,4.94-11.471,11.169-11.894
	c0.261-0.053,0.531-0.081,0.803-0.081l0,0h25.947h13.969h3.99c2.206,0,3.992-1.79,3.992-3.992s-1.786-3.992-3.992-3.992
	c-2.204,0-3.99-1.786-3.99-3.992c0-2.203,1.786-3.992,3.99-3.992c0.281,0,0.545,0.03,0.807,0.083
	c6.229,0.42,11.17,5.555,11.17,11.893C73.572,44.827,68.209,50.189,61.594,50.189z"/>
</svg>
